<svg width="13" height="8" viewBox="0 0 13 8" fill="none" xmlns="http://www.w3.org/2000/svg">
<path fill-rule="evenodd" clip-rule="evenodd" d="M0.153733 0.139307C-0.0454721 0.330544 -0.0519323 0.647061 0.139305 0.846267L3.49931 4.34627C3.59359 4.44448 3.72385 4.5 3.86 4.5C3.99615 4.5 4.12641 4.44448 4.22069 4.34627L6.26 2.22199L8.67665 4.73933L6.95487 6.39223L12.5 8L11.1198 2.3939L9.39803 4.0468L6.62069 1.15373C6.52641 1.05552 6.39615 1 6.26 1C6.12385 1 5.99359 1.05552 5.89931 1.15373L3.86 3.27801L0.860693 0.153735C0.669456 -0.0454709 0.352939 -0.0519304 0.153733 0.139307Z" fill="#E71D36"/>
</svg>
