<svg width="33" height="33" viewBox="0 0 33 33" fill="none" xmlns="http://www.w3.org/2000/svg">
<g clip-path="url(#clip0_642_2958)">
<path d="M15.7487 5.87238H15.8822C16.9499 5.47199 18.151 5.33853 19.3522 5.33853C20.4199 5.33853 21.4876 5.47199 22.5553 5.73892C22.8223 5.73892 23.2227 5.60546 23.3561 5.33853C23.89 4.40429 24.2904 3.33658 24.4238 2.13541C24.5573 1.0677 23.623 -1.16974e-05 22.5553 -1.16974e-05H22.2884C21.6211 -0.133475 20.9538 0.266915 20.6868 0.80077C20.2865 0.266915 19.6191 -1.16974e-05 18.8184 -1.16974e-05C17.7507 0.133452 16.8164 0.934233 16.416 2.00194C15.0814 2.00194 14.2806 2.66926 14.2806 3.6035C14.4141 4.27082 14.681 4.93814 15.0814 5.60546C15.2148 5.73892 15.4818 5.87238 15.7487 5.87238ZM12.0117 18.151C13.0794 18.2845 14.1471 18.6849 15.2148 19.2187C16.0156 19.6191 16.8164 20.0195 17.7507 20.153C19.2188 20.4199 22.0215 20.9538 23.2227 22.5553C23.3561 22.6888 23.4896 22.8223 23.7565 22.8223H23.89C25.2246 22.4219 26.6927 22.1549 28.1608 22.1549H28.4277C28.8281 22.1549 29.0951 21.888 29.0951 21.4876C29.0951 21.3542 29.0951 21.2207 28.9616 21.0872C28.5612 19.6191 27.8939 18.2845 27.0931 17.0833C27.0931 10.8105 25.7585 6.67317 19.2187 6.67317C12.679 6.67317 11.4779 10.8105 11.4779 17.0833C11.3444 17.3503 11.3444 17.7506 11.7448 18.0176C11.8783 18.0176 12.0117 18.0176 12.0117 18.151ZM19.3522 15.4818C18.2845 15.6152 17.2168 14.8144 17.0833 13.7467C16.9499 12.679 17.6172 11.7448 18.6849 11.4779V11.3444C18.6849 10.944 18.9518 10.6771 19.3522 10.6771C19.7526 10.6771 20.0195 10.944 20.0195 11.3444H20.6868C21.0872 11.3444 21.3542 11.6113 21.3542 12.0117C21.3542 12.4121 21.0872 12.679 20.6868 12.679H19.3522C18.9518 12.679 18.6849 12.946 18.6849 13.3463C18.6849 13.7467 18.9518 14.0137 19.3522 14.0137C20.4199 14.0137 21.3542 14.9479 21.3542 16.0156C21.3542 16.8164 20.8203 17.6172 20.0195 17.8841V18.0176C20.0195 18.418 19.7526 18.6849 19.3522 18.6849C18.9518 18.6849 18.6849 18.418 18.6849 18.0176H18.0176C17.6172 18.0176 17.3503 17.7506 17.3503 17.3503C17.3503 16.9499 17.6172 16.6829 18.0176 16.6829H19.3522C19.7526 16.6829 20.0195 16.416 20.0195 16.0156C20.0195 15.6152 19.7526 15.3483 19.3522 15.4818ZM6.27279 18.418L0.800781 17.3503C0.400391 17.2168 0.133464 17.4837 0 17.8841V28.6947C0 29.095 0.266927 29.362 0.667318 29.362H4.80469C5.73893 29.362 6.67318 28.5612 6.80664 27.6269L7.74089 20.6868C8.00781 19.6191 7.20703 18.6849 6.27279 18.418Z" fill="white"/>
<path d="M28.0273 23.3561C26.8262 23.4895 25.625 23.623 24.5573 24.0234C24.1569 24.0234 24.0234 24.2903 24.0234 24.6907C24.0234 25.625 23.623 26.5592 22.8223 27.2265C21.888 27.8938 20.8203 28.1608 19.6191 28.1608C17.0833 28.0273 14.5475 27.4934 12.1452 26.6927C11.7448 26.5592 11.6113 26.2923 11.6113 25.8919C11.7448 25.4915 12.0117 25.358 12.4121 25.358C14.681 26.1588 17.0833 26.5592 19.4857 26.6927C20.2865 26.8261 21.0872 26.5592 21.888 26.1588C22.2884 25.8919 22.5553 25.358 22.5553 24.6907V24.4238C22.2884 22.5553 19.8861 21.888 17.3503 21.3541C16.416 21.0872 15.3483 20.8203 14.5475 20.2864C13.4798 19.7526 12.4121 19.3522 11.2109 19.3522C10.6771 19.3522 10.1432 19.3522 9.60937 19.4856C9.20898 19.4856 9.07552 19.886 9.07552 20.153V20.8203L8.14127 27.7604V28.0273C8.00781 28.2942 8.27474 28.6946 8.54166 28.8281C11.6113 30.2962 15.8822 31.8977 18.0176 31.8977C20.5534 31.8977 25.8919 29.2285 29.4954 27.4934C30.4297 27.0931 31.2305 26.6927 31.6309 26.4257C31.8978 26.2923 32.0312 26.1588 32.0312 25.8919C32.0312 24.4238 30.4297 23.3561 28.0273 23.3561Z" fill="white"/>
</g>
<defs>
<clipPath id="clip0_642_2958">
<rect width="32.0312" height="32.0312" fill="white"/>
</clipPath>
</defs>
</svg>
